<mxfile host="app.diagrams.net" modified="2024-02-12T20:36:45.296Z" agent="Mozilla/5.0 (X11; Linux x86_64) AppleWebKit/537.36 (KHTML, like Gecko) Chrome/120.0.0.0 Safari/537.36" etag="FwIUymjzbHKVR39a0Agj" version="23.1.3" type="github">
  <diagram name="Page-1" id="74e2e168-ea6b-b213-b513-2b3c1d86103e">
    <mxGraphModel dx="1231" dy="1112" grid="1" gridSize="10" guides="1" tooltips="1" connect="1" arrows="1" fold="1" page="1" pageScale="1" pageWidth="1100" pageHeight="850" background="none" math="0" shadow="0">
      <root>
        <mxCell id="0" />
        <mxCell id="1" parent="0" />
        <mxCell id="neOREkyFO5e5M1i8Pwv_-1" value="Actor" style="shape=umlActor;verticalLabelPosition=bottom;verticalAlign=top;html=1;outlineConnect=0;" vertex="1" parent="1">
          <mxGeometry x="110" y="100" width="30" height="60" as="geometry" />
        </mxCell>
        <mxCell id="neOREkyFO5e5M1i8Pwv_-6" value="Can fit Free Tier?" style="edgeStyle=orthogonalEdgeStyle;rounded=0;orthogonalLoop=1;jettySize=auto;html=1;entryX=0;entryY=0.5;entryDx=0;entryDy=0;" edge="1" parent="1" source="neOREkyFO5e5M1i8Pwv_-2" target="neOREkyFO5e5M1i8Pwv_-5">
          <mxGeometry relative="1" as="geometry" />
        </mxCell>
        <mxCell id="neOREkyFO5e5M1i8Pwv_-2" value="AWS Cloud Front" style="whiteSpace=wrap;html=1;aspect=fixed;" vertex="1" parent="1">
          <mxGeometry x="230" y="40" width="180" height="180" as="geometry" />
        </mxCell>
        <mxCell id="neOREkyFO5e5M1i8Pwv_-3" value="AWS EC@&lt;br&gt;" style="whiteSpace=wrap;html=1;aspect=fixed;" vertex="1" parent="1">
          <mxGeometry x="770" y="40" width="180" height="180" as="geometry" />
        </mxCell>
        <mxCell id="neOREkyFO5e5M1i8Pwv_-9" value="" style="edgeStyle=orthogonalEdgeStyle;rounded=0;orthogonalLoop=1;jettySize=auto;html=1;" edge="1" parent="1" source="neOREkyFO5e5M1i8Pwv_-5" target="neOREkyFO5e5M1i8Pwv_-8">
          <mxGeometry relative="1" as="geometry" />
        </mxCell>
        <mxCell id="neOREkyFO5e5M1i8Pwv_-10" style="edgeStyle=orthogonalEdgeStyle;rounded=0;orthogonalLoop=1;jettySize=auto;html=1;" edge="1" parent="1" source="neOREkyFO5e5M1i8Pwv_-5" target="neOREkyFO5e5M1i8Pwv_-3">
          <mxGeometry relative="1" as="geometry" />
        </mxCell>
        <mxCell id="neOREkyFO5e5M1i8Pwv_-5" value="" style="rhombus;whiteSpace=wrap;html=1;" vertex="1" parent="1">
          <mxGeometry x="540" y="90" width="80" height="80" as="geometry" />
        </mxCell>
        <mxCell id="neOREkyFO5e5M1i8Pwv_-8" value="AWS Lambda" style="ellipse;whiteSpace=wrap;html=1;" vertex="1" parent="1">
          <mxGeometry x="540" y="250" width="80" height="80" as="geometry" />
        </mxCell>
      </root>
    </mxGraphModel>
  </diagram>
</mxfile>
